{"accessors" : [{"bufferView" : 0, "byteOffset" : 0, "componentType" : 5123, "count" : 1332, "type" : "SCALAR", "max" : [223], "min" : [0]}, {"bufferView" : 1, "byteOffset" : 0, "componentType" : 5126, "count" : 224, "type" : "VEC3", "max" : [59.226001739502, 47.2560005187988, 0], "min" : [2.24399995803833, -1.2150000333786, -15]}, {"bufferView" : 0, "byteOffset" : 2664, "componentType" : 5123, "count" : 1680, "type" : "SCALAR", "max" : [281], "min" : [0]}, {"bufferView" : 2, "byteOffset" : 0, "componentType" : 5126, "count" : 282, "type" : "VEC3", "max" : [71.8820037841797, 47.2560005187988, 0], "min" : [2.11899995803833, -1.2150000333786, -15]}, {"bufferView" : 0, "byteOffset" : 6024, "componentType" : 5123, "count" : 36, "type" : "SCALAR", "max" : [7], "min" : [0]}, {"bufferView" : 3, "byteOffset" : 0, "componentType" : 5126, "count" : 8, "type" : "VEC3", "max" : [112.36799621582, 254.024002075195, 112.36799621582], "min" : [-112.36799621582, -254.024002075195, -112.36799621582]}, {"bufferView" : 0, "byteOffset" : 6096, "componentType" : 5123, "count" : 36, "type" : "SCALAR", "max" : [7], "min" : [0]}, {"bufferView" : 5, "byteOffset" : 0, "componentType" : 5126, "count" : 8, "type" : "VEC3", "max" : [141.27099609375, 26.5139999389648, 26.5139999389648], "min" : [-141.27099609375, -26.5139999389648, -26.5139999389648]}, {"bufferView" : 0, "byteOffset" : 6168, "componentType" : 5123, "count" : 36, "type" : "SCALAR", "max" : [7], "min" : [0]}, {"bufferView" : 6, "byteOffset" : 0, "componentType" : 5126, "count" : 8, "type" : "VEC3", "max" : [140.759994506836, 26.0289993286133, 26.0289993286133], "min" : [-140.759994506836, -26.0289993286133, -26.0289993286133]}, {"bufferView" : 0, "byteOffset" : 6240, "componentType" : 5123, "count" : 36, "type" : "SCALAR", "max" : [7], "min" : [0]}, {"bufferView" : 7, "byteOffset" : 0, "componentType" : 5126, "count" : 8, "type" : "VEC3", "max" : [135.501007080078, 25.1840000152588, 25.1840000152588], "min" : [-135.501007080078, -25.1840000152588, -25.1840000152588]}], "asset" : {"generator" : "Aspose.3D 20.2.1", "version" : "2.0"}, "buffers" : [{"uri" : "buffer.bin", "byteLength" : 12956}], "bufferViews" : [{"buffer" : 0, "byteOffset" : 0, "byteLength" : 6312, "target" : 34963}, {"buffer" : 0, "byteOffset" : 6316, "byteLength" : 2688, "byteStride" : 12, "target" : 34962}, {"buffer" : 0, "byteOffset" : 9008, "byteLength" : 3384, "byteStride" : 12, "target" : 34962}, {"buffer" : 0, "byteOffset" : 12396, "byteLength" : 96, "byteStride" : 12, "target" : 34962}, {"buffer" : 0, "byteOffset" : 12496, "byteLength" : 158}, {"buffer" : 0, "byteOffset" : 12656, "byteLength" : 96, "byteStride" : 12, "target" : 34962}, {"buffer" : 0, "byteOffset" : 12756, "byteLength" : 96, "byteStride" : 12, "target" : 34962}, {"buffer" : 0, "byteOffset" : 12856, "byteLength" : 96, "byteStride" : 12, "target" : 34962}], "images" : [{"mimeType" : "image/png", "bufferView" : 4}], "materials" : [{"pbrMetallicRoughness" : {"baseColorFactor" : [0.8, 0.8, 0.8, 1], "baseColorTexture" : {"index" : 0, "texCoord" : 0}, "metallicFactor" : 0, "roughnessFactor" : 0}, "emissiveFactor" : [0, 0, 0], "alphaMode" : "OPAQUE", "doubleSided" : false}], "meshes" : [{"primitives" : [{"attributes" : {"POSITION" : 1}, "indices" : 0, "mode" : 4}]}, {"primitives" : [{"attributes" : {"POSITION" : 3}, "indices" : 2, "mode" : 4}]}, {"primitives" : [{"attributes" : {"POSITION" : 5}, "indices" : 4, "material" : 0, "mode" : 4}]}, {"primitives" : [{"attributes" : {"POSITION" : 7}, "indices" : 6, "mode" : 4}]}, {"primitives" : [{"attributes" : {"POSITION" : 9}, "indices" : 8, "mode" : 4}]}, {"primitives" : [{"attributes" : {"POSITION" : 11}, "indices" : 10, "mode" : 4}]}], "nodes" : [{"mesh" : 0}, {"mesh" : 1}, {"mesh" : 2}, {"mesh" : 3}, {"mesh" : 4}, {"mesh" : 5}], "samplers" : [{"magFilter" : 9729, "minFilter" : 9729, "wrapS" : 10497, "wrapT" : 10497}], "scene" : 0, "scenes" : [{"nodes" : [0, 1, 2, 3, 4, 5]}], "textures" : [{"sampler" : 0, "source" : 0}]}