{
  "asset": {
    "version": "2.0",
    "generator": "THREE.GLTFExporter"
  },
  "scenes": [
    {
      "nodes": [
        8
      ]
    }
  ],
  "scene": 0,
  "nodes": [
    {
      "matrix": [
        0.0010000000474974513,
        0,
        0,
        0,
        0,
        0.0010000000474974513,
        0,
        0,
        0,
        0,
        0.0010000000474974513,
        0,
        -0.0146774398162961,
        0.0034271564800292253,
        0.19995605945587158,
        1
      ],
      "name": "mesh_id27",
      "mesh": 0
    },
    {
      "matrix": [
        0.0010000000474974513,
        0,
        0,
        0,
        0,
        0.0010000000474974513,
        0,
        0,
        0,
        0,
        0.005088968202471733,
        0,
        -0.014008224941790104,
        0.18034814298152924,
        0.20190905034542084,
        1
      ],
      "name": "mesh_id29",
      "mesh": 1
    },
    {
      "matrix": [
        0.0010000000474974513,
        0,
        0,
        0,
        0,
        0.0010000000474974513,
        0,
        0,
        0,
        0,
        0.005220786202698946,
        0,
        -0.010611677542328835,
        0.0024253365118056536,
        0.20243149995803833,
        1
      ],
      "name": "mesh_id31",
      "mesh": 2
    },
    {
      "matrix": [
        0.0010000000474974513,
        0,
        0,
        0,
        0,
        0.0010000000474974513,
        0,
        0,
        0,
        0,
        0.00538600655272603,
        0,
        -0.012656738981604576,
        -0.17726801335811615,
        0.201379656791687,
        1
      ],
      "name": "mesh_id33",
      "mesh": 3
    },
    {
      "matrix": [
        1,
        0,
        0,
        0,
        0,
        1,
        0,
        0,
        0,
        0,
        1,
        0,
        -30.7354736328125,
        -23.020431518554688,
        7.5,
        1
      ],
      "name": "mesh_id40",
      "mesh": 4
    },
    {
      "matrix": [
        0.001250000088475609,
        -2.980232804983299e-10,
        -3.552713930263306e-17,
        0,
        2.980232804983299e-10,
        0.001250000088475609,
        -1.2705495612986952e-23,
        0,
        3.552713930263508e-17,
        4.2351645311676306e-24,
        0.0012500000884756446,
        0,
        0.04992089793086052,
        -0.1185336634516716,
        0.32169994711875916,
        1
      ],
      "name": "node_id37",
      "children": [
        4
      ]
    },
    {
      "matrix": [
        1,
        0,
        0,
        0,
        0,
        1,
        0,
        0,
        0,
        0,
        1,
        0,
        -37.00102233886719,
        -23.020431518554688,
        7.5,
        1
      ],
      "name": "mesh_id47",
      "mesh": 5
    },
    {
      "matrix": [
        0.001250000088475609,
        -2.980232804983299e-10,
        -3.552713930263306e-17,
        0,
        2.980232804983299e-10,
        0.001250000088475609,
        -1.2705495612986952e-23,
        0,
        3.552713930263508e-17,
        4.2351645311676306e-24,
        0.0012500000884756446,
        0,
        0.04864745959639549,
        0.06787225604057312,
        0.32169994711875916,
        1
      ],
      "name": "node_id44",
      "children": [
        6
      ]
    },
    {
      "name": "root",
      "children": [
        0,
        1,
        2,
        3,
        5,
        7
      ]
    }
  ],
  "bufferViews": [
    {
      "buffer": 0,
      "byteOffset": 0,
      "byteLength": 288,
      "target": 34962,
      "byteStride": 12
    },
    {
      "buffer": 0,
      "byteOffset": 288,
      "byteLength": 288,
      "target": 34962,
      "byteStride": 12
    },
    {
      "buffer": 0,
      "byteOffset": 576,
      "byteLength": 192,
      "target": 34962,
      "byteStride": 8
    },
    {
      "buffer": 0,
      "byteOffset": 768,
      "byteLength": 384,
      "target": 34962,
      "byteStride": 16
    },
    {
      "buffer": 0,
      "byteOffset": 1152,
      "byteLength": 72,
      "target": 34963
    },
    {
      "buffer": 0,
      "byteOffset": 1224,
      "byteLength": 288,
      "target": 34962,
      "byteStride": 12
    },
    {
      "buffer": 0,
      "byteOffset": 1512,
      "byteLength": 288,
      "target": 34962,
      "byteStride": 12
    },
    {
      "buffer": 0,
      "byteOffset": 1800,
      "byteLength": 72,
      "target": 34963
    },
    {
      "buffer": 0,
      "byteOffset": 1872,
      "byteLength": 288,
      "target": 34962,
      "byteStride": 12
    },
    {
      "buffer": 0,
      "byteOffset": 2160,
      "byteLength": 288,
      "target": 34962,
      "byteStride": 12
    },
    {
      "buffer": 0,
      "byteOffset": 2448,
      "byteLength": 72,
      "target": 34963
    },
    {
      "buffer": 0,
      "byteOffset": 2520,
      "byteLength": 288,
      "target": 34962,
      "byteStride": 12
    },
    {
      "buffer": 0,
      "byteOffset": 2808,
      "byteLength": 288,
      "target": 34962,
      "byteStride": 12
    },
    {
      "buffer": 0,
      "byteOffset": 3096,
      "byteLength": 72,
      "target": 34963
    },
    {
      "buffer": 0,
      "byteOffset": 3168,
      "byteLength": 5544,
      "target": 34962,
      "byteStride": 12
    },
    {
      "buffer": 0,
      "byteOffset": 8712,
      "byteLength": 5544,
      "target": 34962,
      "byteStride": 12
    },
    {
      "buffer": 0,
      "byteOffset": 14256,
      "byteLength": 2664,
      "target": 34963
    },
    {
      "buffer": 0,
      "byteOffset": 16920,
      "byteLength": 6936,
      "target": 34962,
      "byteStride": 12
    },
    {
      "buffer": 0,
      "byteOffset": 23856,
      "byteLength": 6936,
      "target": 34962,
      "byteStride": 12
    },
    {
      "buffer": 0,
      "byteOffset": 30792,
      "byteLength": 3360,
      "target": 34963
    }
  ],
  "buffers": [
    {
      "byteLength": 34152,
      "uri": "data:application/octet-stream;base64,"
    }
  ],
  "accessors": [
    {
      "bufferView": 0,
      "componentType": 5126,
      "count": 24,
      "max": [
        112.36886596679688,
        254.02430725097656,
        112.36886596679688
      ],
      "min": [
        -112.36886596679688,
        -254.02430725097656,
        -112.36886596679688
      ],
      "type": "VEC3"
    },
    {
      "bufferView": 1,
      "componentType": 5126,
      "count": 24,
      "max": [
        1,
        1,
        1
      ],
      "min": [
        -1,
        -1,
        -1
      ],
      "type": "VEC3"
    },
    {
      "bufferView": 2,
      "componentType": 5126,
      "count": 24,
      "max": [
        0.7984387278556824,
        0.9999297261238098
      ],
      "min": [
        0.00005078315734863281,
        0.00007051229476928711
      ],
      "type": "VEC2"
    },
    {
      "bufferView": 3,
      "componentType": 5126,
      "count": 24,
      "max": [
        1,
        1,
        1,
        1
      ],
      "min": [
        1,
        1,
        1,
        1
      ],
      "type": "VEC4"
    },
    {
      "bufferView": 4,
      "componentType": 5123,
      "count": 36,
      "max": [
        23
      ],
      "min": [
        0
      ],
      "type": "SCALAR"
    },
    {
      "bufferView": 5,
      "componentType": 5126,
      "count": 24,
      "max": [
        141.27178955078125,
        26.514076232910156,
        26.514076232910156
      ],
      "min": [
        -141.27178955078125,
        -26.514076232910156,
        -26.514076232910156
      ],
      "type": "VEC3"
    },
    {
      "bufferView": 6,
      "componentType": 5126,
      "count": 24,
      "max": [
        1,
        1,
        1
      ],
      "min": [
        -1,
        -1,
        -1
      ],
      "type": "VEC3"
    },
    {
      "bufferView": 7,
      "componentType": 5123,
      "count": 36,
      "max": [
        23
      ],
      "min": [
        0
      ],
      "type": "SCALAR"
    },
    {
      "bufferView": 8,
      "componentType": 5126,
      "count": 24,
      "max": [
        140.76028442382812,
        26.02960968017578,
        26.02960968017578
      ],
      "min": [
        -140.76028442382812,
        -26.02960968017578,
        -26.02960968017578
      ],
      "type": "VEC3"
    },
    {
      "bufferView": 9,
      "componentType": 5126,
      "count": 24,
      "max": [
        1,
        1,
        1
      ],
      "min": [
        -1,
        -1,
        -1
      ],
      "type": "VEC3"
    },
    {
      "bufferView": 10,
      "componentType": 5123,
      "count": 36,
      "max": [
        23
      ],
      "min": [
        0
      ],
      "type": "SCALAR"
    },
    {
      "bufferView": 11,
      "componentType": 5126,
      "count": 24,
      "max": [
        135.5010986328125,
        25.184791564941406,
        25.184791564941406
      ],
      "min": [
        -135.5010986328125,
        -25.184791564941406,
        -25.184791564941406
      ],
      "type": "VEC3"
    },
    {
      "bufferView": 12,
      "componentType": 5126,
      "count": 24,
      "max": [
        1,
        1,
        1
      ],
      "min": [
        -1,
        -1,
        -1
      ],
      "type": "VEC3"
    },
    {
      "bufferView": 13,
      "componentType": 5123,
      "count": 36,
      "max": [
        23
      ],
      "min": [
        0
      ],
      "type": "SCALAR"
    },
    {
      "bufferView": 14,
      "componentType": 5126,
      "count": 462,
      "max": [
        59.226566314697266,
        47.25656509399414,
        0
      ],
      "min": [
        2.244375228881836,
        -1.2157032489776611,
        -15
      ],
      "type": "VEC3"
    },
    {
      "bufferView": 15,
      "componentType": 5126,
      "count": 462,
      "max": [
        1,
        1,
        1
      ],
      "min": [
        -1,
        -1,
        -1
      ],
      "type": "VEC3"
    },
    {
      "bufferView": 16,
      "componentType": 5123,
      "count": 1332,
      "max": [
        461
      ],
      "min": [
        0
      ],
      "type": "SCALAR"
    },
    {
      "bufferView": 17,
      "componentType": 5126,
      "count": 578,
      "max": [
        71.8823471069336,
        47.25656509399414,
        0
      ],
      "min": [
        2.119687557220459,
        -1.2157032489776611,
        -15
      ],
      "type": "VEC3"
    },
    {
      "bufferView": 18,
      "componentType": 5126,
      "count": 578,
      "max": [
        0.9999969005584717,
        1,
        1
      ],
      "min": [
        -1,
        -1,
        -1
      ],
      "type": "VEC3"
    },
    {
      "bufferView": 19,
      "componentType": 5123,
      "count": 1680,
      "max": [
        577
      ],
      "min": [
        0
      ],
      "type": "SCALAR"
    }
  ],
  "materials": [],
  "meshes": [
    {
      "primitives": [
        {
          "mode": 4,
          "attributes": {
            "POSITION": 0,
            "NORMAL": 1,
            "TEXCOORD_0": 2,
            "COLOR_0": 3
          },
          "indices": 4
        }
      ]
    },
    {
      "primitives": [
        {
          "mode": 4,
          "attributes": {
            "POSITION": 5,
            "NORMAL": 6
          },
          "indices": 7
        }
      ]
    },
    {
      "primitives": [
        {
          "mode": 4,
          "attributes": {
            "POSITION": 8,
            "NORMAL": 9
          },
          "indices": 10
        }
      ]
    },
    {
      "primitives": [
        {
          "mode": 4,
          "attributes": {
            "POSITION": 11,
            "NORMAL": 12
          },
          "indices": 13
        }
      ]
    },
    {
      "primitives": [
        {
          "mode": 4,
          "attributes": {
            "POSITION": 14,
            "NORMAL": 15
          },
          "indices": 16
        }
      ]
    },
    {
      "primitives": [
        {
          "mode": 4,
          "attributes": {
            "POSITION": 17,
            "NORMAL": 18
          },
          "indices": 19
        }
      ]
    }
  ]
}